<!DOCTYPE svg PUBLIC "-//W3C//DTD SVG 1.1//EN" "http://www.w3.org/Graphics/SVG/1.1/DTD/svg11.dtd">
<!-- Uploaded to: SVG Repo, www.svgrepo.com, Transformed by: SVG Repo Mixer Tools -->
<svg fill="#ffffff" height="800px" width="800px" version="1.1" id="Layer_1" xmlns="http://www.w3.org/2000/svg" xmlns:xlink="http://www.w3.org/1999/xlink" viewBox="0 0 512 512" xml:space="preserve">
<g id="SVGRepo_bgCarrier" stroke-width="0"/>
<g id="SVGRepo_tracerCarrier" stroke-linecap="round" stroke-linejoin="round"/>
<g id="SVGRepo_iconCarrier"> <g> <g> <path d="M256,0C128.956,0,25.6,103.364,25.6,230.4c0,2.543,0,68.267,0,68.267C25.6,416.299,128.956,512,256,512 s230.4-95.701,230.4-213.333c0,0,0-65.724,0-68.267C486.4,103.364,383.044,0,256,0z M76.8,375.467v29.491 c-17.459-24.832-29.005-53.478-32.759-84.284c8.422,19.695,19.533,37.973,32.836,54.409C76.868,375.228,76.8,375.339,76.8,375.467 z M119.467,449.34c-9.233-7.091-17.783-14.908-25.6-23.322v-32.102c7.979,7.91,16.538,15.24,25.6,21.931V449.34z M162.133,474.863 c-9.114-4.13-17.869-8.823-26.197-14.063h0.597v-33.459c8.201,4.992,16.768,9.438,25.6,13.389V474.863z M204.8,489.182 c-8.764-1.997-17.297-4.497-25.6-7.458V447.59c8.32,2.953,16.87,5.419,25.6,7.407V489.182z M247.467,494.737 c-8.678-0.316-17.22-1.101-25.6-2.347v-34.133c8.397,1.254,16.939,2.014,25.6,2.33V494.737z M290.133,492.39 c-8.38,1.246-16.922,2.031-25.6,2.347v-34.15c8.661-0.316,17.203-1.075,25.6-2.33V492.39z M332.8,481.732 c-8.303,2.961-16.836,5.461-25.6,7.458v-34.193c8.73-1.988,17.28-4.454,25.6-7.407V481.732z M349.867,474.863V440.73 c8.832-3.959,17.399-8.397,25.6-13.389V460.8h0.597C367.735,466.039,358.98,470.741,349.867,474.863z M418.133,426.018 c-7.817,8.414-16.367,16.222-25.6,23.322v-33.493c9.062-6.69,17.621-14.012,25.6-21.931V426.018z M256,407.629 c-97.724,0-177.237-79.497-177.237-177.229S158.276,53.18,256,53.18s177.237,79.497,177.237,177.22S353.724,407.629,256,407.629z M435.2,404.958v-29.491c0-0.137-0.068-0.247-0.077-0.375c13.303-16.435,24.414-34.714,32.836-54.409 C464.205,351.479,452.659,380.134,435.2,404.958z"/> </g> </g> <g> <g> <path d="M414.694,214.059c-7.467-74.581-67.797-134.895-142.379-142.345C171.571,61.653,87.228,146.005,97.314,246.75 c7.467,74.581,67.789,134.895,142.37,142.345C340.437,399.155,424.772,314.803,414.694,214.059z M326.605,276.924 c-1.92,22.374-25.719,39.654-58.283,43.631c-2.142,0.265-3.789,2.022-3.789,4.181v8.772c0,4.719-3.823,8.533-8.533,8.533 c-4.71,0-8.533-3.814-8.533-8.533v-8.124c0-2.287-1.852-4.139-4.139-4.25c-26.761-1.246-39.876-7.066-55.313-22.921 c-3.285-3.379-3.209-8.781,0.171-12.066c3.379-3.294,8.781-3.208,12.066,0.171c11.418,11.742,20.011,16.563,42.735,17.732 c2.424,0.128,4.48-1.843,4.48-4.267v-57.745c0-2.133-1.63-3.891-3.746-4.19c-37.922-5.282-54.775-27.332-54.46-48.503 c0.333-22.025,19.063-44.501,54.426-49.101c2.133-0.282,3.78-2.031,3.78-4.181v-8.772c0-4.719,3.823-8.533,8.533-8.533 c4.71,0,8.533,3.814,8.533,8.533v8.329c0,2.253,1.801,4.079,4.053,4.224c26.761,1.749,44.757,9.259,55.97,23.39 c2.927,3.695,2.313,9.062-1.382,11.981c-3.703,2.944-9.062,2.313-11.989-1.382c-5.154-6.502-15.096-14.839-42.044-16.896 c-2.458-0.188-4.608,1.818-4.608,4.284v59.008c0,1.963,1.408,3.652,3.311,4.122C324.992,238.43,327.39,267.827,326.605,276.924z"/> </g> </g> <g> <g> <path d="M242.56,157.798c-23.501,4.147-36.028,18.057-36.233,31.804c-0.196,12.817,11.162,26.112,36.173,30.643 c2.586,0.469,4.966-1.604,4.966-4.233v-53.973C247.467,159.437,245.12,157.346,242.56,157.798z"/> </g> </g> <g> <g> <path d="M269.961,242.534c-2.705-0.794-5.427,1.306-5.427,4.122v52.207c0,2.577,2.295,4.642,4.847,4.25 c24.166-3.746,39.219-15.94,40.226-27.648C310.485,265.225,300.177,251.349,269.961,242.534z"/> </g> </g> </g>
</svg>